<svg width="558" height="352" viewBox="0 0 558 352" fill="none" xmlns="http://www.w3.org/2000/svg">
<rect x="382" y="322" width="128" height="30" rx="10" fill="black"/>
<mask id="path-2-inside-1_617_19597" fill="white">
<rect width="352" height="352" rx="10"/>
</mask>
<rect width="352" height="352" rx="10" stroke="black" stroke-width="60" mask="url(#path-2-inside-1_617_19597)"/>
<path d="M130.667 288C117.867 288 106.044 285.418 95.2 280.253C84.5333 274.91 76 266.895 69.6 256.209C63.2 245.345 60 231.721 60 215.336V209.993C60 194.32 63.0222 181.319 69.0667 170.989C75.2889 160.659 83.5556 152.912 93.8667 147.747C104.178 142.582 115.556 140 128 140C150.222 140 167.111 145.877 178.667 157.632C190.222 169.386 196 186.395 196 208.657V223.617H96C96.3556 231.988 98.1333 238.845 101.333 244.188C104.711 249.353 108.978 253.182 114.133 255.675C119.289 257.99 124.8 259.148 130.667 259.148C139.733 259.148 146.578 257.812 151.2 255.141C155.822 252.469 159.111 248.551 161.067 243.386H193.333C190.489 258.168 183.467 269.3 172.267 276.78C161.067 284.26 147.2 288 130.667 288ZM129.333 168.852C123.822 168.852 118.489 169.742 113.333 171.523C108.178 173.304 104.089 176.51 101.067 181.141C98.0444 185.593 96.3556 191.56 96 199.04H161.867C161.689 191.025 160.089 184.881 157.067 180.607C154.222 176.154 150.4 173.126 145.6 171.523C140.8 169.742 135.378 168.852 129.333 168.852Z" fill="black"/>
</svg>
