<svg width="50" height="50" viewBox="0 0 50 50" fill="none" xmlns="http://www.w3.org/2000/svg">
<g clip-path="url(#clip0_392_11070)">
<path fill-rule="evenodd" clip-rule="evenodd" d="M25 0C11.1875 0 0 11.1875 0 25C0 38.8125 11.1875 50 25 50C38.8125 50 50 38.8125 50 25C50 11.1875 38.8125 0 25 0ZM24.9375 47.625C12.4375 47.625 2.25 37.5 2.25 25C2.25 12.5 12.375 2.3125 24.9375 2.3125C37.4375 2.3125 47.625 12.4375 47.625 25C47.5625 37.5 37.4375 47.625 24.9375 47.625ZM36.9375 15.75L36.6875 16.5L36.4375 15.75H36.125V16.8125H36.3125V15.9375L36.625 16.8125H36.8125L37.125 15.9375V16.8125H37.3125V15.75H36.9375ZM35 15.75H35.875V15.9375H35.5V16.8125H35.3125V15.9375H35V15.75ZM29.4375 15.1875H15.0625L12.875 18.6875H27.25L29.4375 15.1875ZM32.25 15.1875L43.1875 32.625H39.0625L36.875 29.125H30.5L32.6875 25.625H34.6875L32.25 21.75L25.4375 32.625H7.3125L11.6875 25.625H8.5L10.6875 22.125H24.6875L22.5 25.625H15.8125L13.625 29.125H23.5L32.25 15.1875Z" fill="#255BF3"/>
</g>
<defs>
<clipPath id="clip0_392_11070">
<rect width="50" height="50" fill="white"/>
</clipPath>
</defs>
</svg>
